<svg viewBox="0 0 100 100" xmlns="http://www.w3.org/2000/svg">
  <defs>
    <linearGradient id="faviconGradient" x1="0%" y1="0%" x2="100%" y2="100%">
      <stop offset="0%" style="stop-color:#0047FF;stop-opacity:1" />
      <stop offset="100%" style="stop-color:#5B8FFF;stop-opacity:1" />
    </linearGradient>
  </defs>

  <rect width="100" height="100" fill="#0a0b0d" rx="20"/>

  <path
    d="M 50 20 Q 62 24, 70 32 Q 78 40, 80 50 Q 78 60, 70 68 Q 62 76, 50 80 Q 38 76, 30 68 Q 22 60, 20 50 Q 22 40, 30 32 Q 38 24, 50 20"
    fill="none"
    stroke="url(#faviconGradient)"
    stroke-width="2.5"
    opacity="0.5"
  />

  <path
    d="M 35 50 Q 43 38, 50 42 Q 57 46, 65 35"
    fill="none"
    stroke="url(#faviconGradient)"
    stroke-width="4"
    stroke-linecap="round"
  />

  <circle cx="35" cy="50" r="4.5" fill="url(#faviconGradient)" opacity="0.9" />
  <circle cx="50" cy="42" r="5.5" fill="url(#faviconGradient)" />
  <circle cx="65" cy="35" r="4.5" fill="url(#faviconGradient)" opacity="0.9" />

  <path
    d="M 35 50 Q 43 60, 50 57 Q 57 54, 65 65"
    fill="none"
    stroke="url(#faviconGradient)"
    stroke-width="3"
    stroke-linecap="round"
    opacity="0.7"
  />

  <circle cx="50" cy="57" r="3.5" fill="url(#faviconGradient)" opacity="0.8" />
</svg>
