<svg viewBox="0 0 100 100" xmlns="http://www.w3.org/2000/svg">
  <defs>
    <linearGradient id="logoGradient" x1="0%" y1="0%" x2="100%" y2="100%">
      <stop offset="0%" style="stop-color:#0047FF;stop-opacity:1" />
      <stop offset="50%" style="stop-color:#2D6FFF;stop-opacity:1" />
      <stop offset="100%" style="stop-color:#5B8FFF;stop-opacity:1" />
    </linearGradient>
  </defs>

  <!-- 外圈：预测的不确定性波动 -->
  <path
    d="M 50 10 Q 65 15, 75 25 Q 85 35, 90 50 Q 85 65, 75 75 Q 65 85, 50 90 Q 35 85, 25 75 Q 15 65, 10 50 Q 15 35, 25 25 Q 35 15, 50 10"
    fill="none"
    stroke="url(#logoGradient)"
    stroke-width="3"
    opacity="0.4"
  />

  <!-- 中间层：市场趋势曲线 -->
  <path
    d="M 30 50 Q 40 35, 50 40 Q 60 45, 70 30"
    fill="none"
    stroke="url(#logoGradient)"
    stroke-width="4"
    stroke-linecap="round"
  />

  <!-- 核心：概率节点 -->
  <circle cx="30" cy="50" r="5" fill="url(#logoGradient)" opacity="0.8" />
  <circle cx="50" cy="40" r="6" fill="url(#logoGradient)" />
  <circle cx="70" cy="30" r="5" fill="url(#logoGradient)" opacity="0.8" />

  <!-- 下方趋势线 -->
  <path
    d="M 30 50 Q 40 65, 50 60 Q 60 55, 70 70"
    fill="none"
    stroke="url(#logoGradient)"
    stroke-width="3"
    stroke-linecap="round"
    opacity="0.6"
  />

  <circle cx="50" cy="60" r="4" fill="url(#logoGradient)" opacity="0.7" />
</svg>
